<?xml version="1.0" encoding="iso-8859-1"?>
<!-- Generator: Adobe Illustrator 19.0.0, SVG Export Plug-In . SVG Version: 6.00 Build 0)  -->
<svg version="1.1" id="Layer_1" xmlns="http://www.w3.org/2000/svg" xmlns:xlink="http://www.w3.org/1999/xlink" x="0px" y="0px"
	 viewBox="0 0 511.99 511.99" style="enable-background:new 0 0 511.99 511.99;" xml:space="preserve">
<g>
	<g>
		<circle cx="387.495" cy="79.238" r="41.285"/>
	</g>
</g>
<g>
	<g>
		<path d="M503.962,209.479l-49.347-50.651l-0.379-2.368c-2.001-14.624-15.147-25.262-30.018-23.984
			c-17.981,1.546-36.295,3.21-52.896,4.787c-10.282,0.977-19.576,6.518-25.332,15.094l-39.451,58.779h-37.296
			c3.078-4.1,4.667-9.382,3.871-15.065c-1.412-10.094-10.387-17.416-20.581-17.416h-56.839l-30.69-45.44l0.521-3.428
			c2.302-15.137-8.103-29.274-23.24-31.577l-37.655-5.726c-15.137-2.302-29.274,8.103-31.576,23.24L53.173,246.477h52.942
			l-11.62-5.632c-15.462-7.494-20.96-23.459-20.179-31.62l6.87-71.771l9.982,73.384c0.876,6.434,4.916,11.964,10.711,14.772
			l69.416,33.644c9.083,4.404,20.027,1.05,25.087-7.63c5.717-9.805,1.809-22.244-8.245-27.118l-60.1-29.13l-9.04-66.454
			l22.236,54.039c22.67,10.988,18.335,8.886,54.287,26.312c4.957,2.403,9.209,5.825,12.541,10.011h24.93
			c-3.078,4.101-4.667,9.384-3.871,15.069c1.414,10.093,10.389,17.413,20.581,17.413h67.631c6.749,0,13.057-3.352,16.835-8.945
			l19.183-28.403c0.834,9.696,6.643,77.272,7.364,85.659l-30.852,68.27c-0.62,1.371-1.1,2.801-1.434,4.267l-25.452,111.948
			c-2.748,12.088,4.824,24.116,16.911,26.864c12.094,2.748,24.117-4.828,26.864-16.911l24.95-109.741l35.814-79.249l11.839-1.018
			c-0.138,0.876-12.848,81.835-12.743,81.163c-0.603,3.839-0.199,7.77,1.173,11.407l37.863,100.383
			c4.38,11.618,17.344,17.45,28.922,13.08c11.598-4.374,17.456-17.324,13.08-28.922l-35.768-94.843l8.995-57.297
			c-16.076-6.619-25.654-24.015-21.871-41.598c2.463-11.446,9.679-44.985,12.168-56.556l-30.647-53.877l49.643,50.954l-13.61,63.255
			c-2.172,10.106,4.257,20.048,14.352,22.221c10.131,2.182,20.062-4.316,22.221-14.352l15.719-73.059
			C510.198,220.206,508.209,213.838,503.962,209.479z"/>
	</g>
</g>
<g>
	<g>
		<circle cx="154.002" cy="42.096" r="42.096"/>
	</g>
</g>
<g>
	<g>
		<path d="M260.378,464.199h-16.255V322.625h-0.001c0-25.368-16.037-47.053-38.502-55.471c-10.864,11.074-27.549,14.2-41.71,7.335
			l-22.867-11.084H7.874c-2.845,0-5.152,2.307-5.152,5.152v23.552c0,2.845,2.307,5.152,5.152,5.152h177.029
			c13.985,0,25.363,11.377,25.363,25.363v141.574h-22.679c1.03-2.58,1.664-5.368,1.762-8.304l3.914-117.761
			c0.139-4.164-0.782-8.297-2.676-12.01l-6.085-11.93h-55.302l14.615,28.655l-3.703,111.412c-0.116,3.512,0.512,6.873,1.737,9.941
			H88.021c0.551-1.384-2.853,8.283,37.673-107.536c1.683-4.809,1.833-10.021,0.43-14.919l-7.892-27.551H66.987l9.622,33.591
			l-34.696,99.157c-2.044,5.84-1.752,11.929,0.376,17.257H11.59c-4.898,0-8.868,3.97-8.868,8.868v29.922
			c0,4.898,3.97,8.868,8.868,8.868h248.787c4.898,0,8.868-3.97,8.868-8.868v-29.922
			C269.246,468.169,265.276,464.199,260.378,464.199z"/>
	</g>
</g>
<g>
</g>
<g>
</g>
<g>
</g>
<g>
</g>
<g>
</g>
<g>
</g>
<g>
</g>
<g>
</g>
<g>
</g>
<g>
</g>
<g>
</g>
<g>
</g>
<g>
</g>
<g>
</g>
<g>
</g>
</svg>
